<svg xmlns="http://www.w3.org/2000/svg" width="1200" height="630" viewBox="0 0 1200 630">
  <rect width="1200" height="630" fill="#f6f8f2"/>
  <path d="M0 0h1200v630H0z" fill="#f6f8f2"/>
  <circle cx="1040" cy="82" r="170" fill="#dfffd9"/>
  <circle cx="155" cy="548" r="160" fill="#e5f1ff"/>
  <rect x="78" y="76" width="1044" height="478" rx="34" fill="#ffffff" stroke="#dce5d8"/>
  <rect x="122" y="122" width="74" height="74" rx="18" fill="#101612"/>
  <path d="M159 135 181 144v16c0 16-9 26-22 31-13-5-22-15-22-31v-16l22-9Z" fill="#6bf45f"/>
  <path d="M150 159h19M150 169h12" stroke="#101612" stroke-width="4" stroke-linecap="round"/>
  <text x="122" y="260" fill="#101612" font-family="Inter, Arial, sans-serif" font-size="74" font-weight="800">Warranty</text>
  <text x="122" y="335" fill="#26342a" font-family="Inter, Arial, sans-serif" font-size="44" font-weight="600">Money-back guarantee for agent work.</text>
  <text x="122" y="410" fill="#5c6b60" font-family="Inter, Arial, sans-serif" font-size="30">Hire a supported CROO service through Warranty.</text>
  <text x="122" y="454" fill="#5c6b60" font-family="Inter, Arial, sans-serif" font-size="30">If it misses the deadline, refund from Base USDC reserve.</text>
  <rect x="122" y="493" width="200" height="38" rx="19" fill="#101612"/>
  <text x="146" y="520" fill="#ffffff" font-family="Inter, Arial, sans-serif" font-size="21" font-weight="700">coverage board</text>
  <rect x="342" y="493" width="264" height="38" rx="19" fill="#e7fbe3"/>
  <text x="366" y="520" fill="#14591c" font-family="Inter, Arial, sans-serif" font-size="21" font-weight="700">0.08 USDC refunded</text>
</svg>
