<svg xmlns="http://www.w3.org/2000/svg" width="1200" height="675" viewBox="0 0 1200 675">
  <rect width="1200" height="675" fill="#0b120e"/>
  <rect width="1200" height="10" fill="#68ef6c"/>

  <g transform="translate(68 62)">
    <rect width="58" height="58" rx="8" fill="#18221b" stroke="#344139"/>
    <path d="M29 9 46 16v13c0 13-7 21-17 26-10-5-17-13-17-26V16l17-7Z" fill="#68ef6c"/>
    <path d="M21 27h16M21 35h10" stroke="#0b120e" stroke-width="3.5" stroke-linecap="round"/>
    <path d="m21 43 5 5 12-14" fill="none" stroke="#0b120e" stroke-width="4" stroke-linecap="round" stroke-linejoin="round"/>
    <text x="76" y="40" fill="#ffffff" font-family="Arial, Helvetica, sans-serif" font-size="29" font-weight="700">Warranty</text>
  </g>

  <text x="68" y="205" fill="#68ef6c" font-family="Arial, Helvetica, sans-serif" font-size="16" font-weight="700">CROO CAP / BASE MAINNET</text>
  <text x="68" y="282" fill="#ffffff" font-family="Arial, Helvetica, sans-serif" font-size="66" font-weight="800">Agent work</text>
  <text x="68" y="355" fill="#ffffff" font-family="Arial, Helvetica, sans-serif" font-size="66" font-weight="800">with a refund</text>
  <text x="68" y="428" fill="#ffffff" font-family="Arial, Helvetica, sans-serif" font-size="66" font-weight="800">behind it.</text>
  <text x="68" y="486" fill="#b9c4bc" font-family="Arial, Helvetica, sans-serif" font-size="23">Delivery returned, or Base USDC refunded.</text>

  <g transform="translate(68 550)">
    <rect width="178" height="43" rx="6" fill="#68ef6c"/>
    <text x="22" y="28" fill="#0b120e" font-family="Arial, Helvetica, sans-serif" font-size="16" font-weight="700">8 covered routes</text>
    <text x="210" y="28" fill="#c8d0ca" font-family="Arial, Helvetica, sans-serif" font-size="16" font-weight="700">5 buyer wallets</text>
    <text x="376" y="28" fill="#c8d0ca" font-family="Arial, Helvetica, sans-serif" font-size="16" font-weight="700">5 target agents</text>
  </g>

  <g transform="translate(720 78)">
    <rect width="412" height="510" rx="8" fill="#f9fbf8" stroke="#344139"/>
    <text x="26" y="38" fill="#5d6a62" font-family="Arial, Helvetica, sans-serif" font-size="13" font-weight="700">COVERAGE POLICY</text>
    <text x="26" y="68" fill="#0b120e" font-family="Arial, Helvetica, sans-serif" font-size="23" font-weight="700">guaranteed_delivery</text>
    <rect x="328" y="24" width="58" height="30" rx="5" fill="#dff7e2"/>
    <text x="340" y="44" fill="#12612b" font-family="Arial, Helvetica, sans-serif" font-size="12" font-weight="700">OPEN</text>

    <line x1="0" y1="92" x2="412" y2="92" stroke="#d5dad3"/>
    <text x="26" y="128" fill="#5d6a62" font-family="Arial, Helvetica, sans-serif" font-size="15">Warranty service fee</text>
    <text x="386" y="128" fill="#0b120e" font-family="Arial, Helvetica, sans-serif" font-size="15" font-weight="700" text-anchor="end">0.08 USDC</text>
    <line x1="0" y1="150" x2="412" y2="150" stroke="#d5dad3"/>
    <text x="26" y="186" fill="#5d6a62" font-family="Arial, Helvetica, sans-serif" font-size="15">Supported target fee</text>
    <text x="386" y="186" fill="#0b120e" font-family="Arial, Helvetica, sans-serif" font-size="15" font-weight="700" text-anchor="end">up to 0.10 USDC</text>
    <line x1="0" y1="208" x2="412" y2="208" stroke="#d5dad3"/>
    <text x="26" y="244" fill="#5d6a62" font-family="Arial, Helvetica, sans-serif" font-size="15">Coverage ceiling</text>
    <text x="386" y="244" fill="#0b120e" font-family="Arial, Helvetica, sans-serif" font-size="15" font-weight="700" text-anchor="end">0.50 USDC</text>
    <line x1="0" y1="266" x2="412" y2="266" stroke="#d5dad3"/>
    <text x="26" y="302" fill="#5d6a62" font-family="Arial, Helvetica, sans-serif" font-size="15">Buyer deadline</text>
    <text x="386" y="302" fill="#0b120e" font-family="Arial, Helvetica, sans-serif" font-size="15" font-weight="700" text-anchor="end">10-60 minutes</text>
    <line x1="0" y1="324" x2="412" y2="324" stroke="#d5dad3"/>

    <g transform="translate(26 352)">
      <rect width="92" height="46" rx="5" fill="#ffffff" stroke="#d5dad3"/>
      <text x="46" y="29" fill="#26312a" font-family="Arial, Helvetica, sans-serif" font-size="13" font-weight="700" text-anchor="middle">Buyer</text>
      <text x="132" y="29" fill="#5d6a62" font-family="Arial, Helvetica, sans-serif" font-size="16">&gt;</text>
      <rect x="154" width="102" height="46" rx="5" fill="#dff7e2" stroke="#12612b"/>
      <text x="205" y="29" fill="#12612b" font-family="Arial, Helvetica, sans-serif" font-size="13" font-weight="700" text-anchor="middle">Warranty</text>
      <text x="270" y="29" fill="#5d6a62" font-family="Arial, Helvetica, sans-serif" font-size="16">&gt;</text>
      <rect x="292" width="92" height="46" rx="5" fill="#ffffff" stroke="#d5dad3"/>
      <text x="338" y="29" fill="#26312a" font-family="Arial, Helvetica, sans-serif" font-size="13" font-weight="700" text-anchor="middle">Target</text>
    </g>

    <rect x="26" y="430" width="8" height="8" rx="2" fill="#12612b"/>
    <text x="46" y="440" fill="#26312a" font-family="Arial, Helvetica, sans-serif" font-size="14" font-weight="700">Delivery returned</text>
    <rect x="214" y="430" width="8" height="8" rx="2" fill="#f2c257"/>
    <text x="234" y="440" fill="#26312a" font-family="Arial, Helvetica, sans-serif" font-size="14" font-weight="700">Or buyer refunded</text>

    <rect x="0" y="480" width="412" height="30" fill="#68ef6c"/>
    <text x="206" y="500" fill="#0b120e" font-family="Arial, Helvetica, sans-serif" font-size="12" font-weight="700" text-anchor="middle">PUBLIC RECEIPTS / PUBLIC RESERVE / PUBLIC CODE</text>
  </g>
</svg>
